<?xml version="1.0" encoding="utf-8"?>
<!-- Generator: Adobe Illustrator 15.0.0, SVG Export Plug-In . SVG Version: 6.00 Build 0)  -->
<!DOCTYPE svg PUBLIC "-//W3C//DTD SVG 1.0//EN" "http://www.w3.org/TR/2001/REC-SVG-20010904/DTD/svg10.dtd">
<svg version="1.0"
	 id="Ebene_1" inkscape:version="0.48.5 r10040" inkscape:export-ydpi="67.154305" sodipodi:docname="splash.svg" inkscape:export-xdpi="67.154305" inkscape:export-filename="/Users/matthieu/Desktop/logo.png" xmlns:dc="http://purl.org/dc/elements/1.1/" xmlns:cc="http://creativecommons.org/ns#" xmlns:rdf="http://www.w3.org/1999/02/22-rdf-syntax-ns#" xmlns:svg="http://www.w3.org/2000/svg" xmlns:sodipodi="http://sodipodi.sourceforge.net/DTD/sodipodi-0.dtd" xmlns:inkscape="http://www.inkscape.org/namespaces/inkscape"
	 xmlns="http://www.w3.org/2000/svg" xmlns:xlink="http://www.w3.org/1999/xlink" x="0px" y="0px" width="1280px" height="720px"
	 viewBox="0 0 1280 720" enable-background="new 0 0 1280 720" xml:space="preserve">
<sodipodi:namedview  id="namedview63" inkscape:pageopacity="0" inkscape:pageshadow="2" inkscape:current-layer="layer1" inkscape:window-width="1920" inkscape:window-height="1014" inkscape:window-x="0" inkscape:window-y="27" inkscape:window-maximized="1" gridtolerance="10" guidetolerance="10" showgrid="false" inkscape:zoom="0.66449955" inkscape:cx="423.67997" bordercolor="#666666" inkscape:cy="302.36131" pagecolor="#ffffff" borderopacity="1" objecttolerance="10">
	</sodipodi:namedview>
<g>
	<path id="path3" inkscape:connector-curvature="0" fill="#C90012" d="M875.693,685.275L875.693,685.275L875.693,685.275z"/>
	<path id="path5" inkscape:connector-curvature="0" fill="#C90012" d="M875.693,664.212L875.693,664.212L875.693,664.212z"/>
	<path id="path7" inkscape:connector-curvature="0" fill="#C90012" d="M875.693,643.14L875.693,643.14L875.693,643.14z"/>
	<path id="path9" inkscape:connector-curvature="0" fill="#C90012" d="M875.693,653.674L875.693,653.674L875.693,653.674z"/>
	<path id="path11" inkscape:connector-curvature="0" fill="#C90012" d="M875.693,695.808L875.693,695.808L875.693,695.808z"/>
	<path id="path13" inkscape:connector-curvature="0" fill="#C90012" d="M875.693,674.74L875.693,674.74L875.693,674.74z"/>
	<path id="path15" inkscape:connector-curvature="0" fill="#C90012" d="M875.693,632.604L875.693,632.604L875.693,632.604z"/>
	<path id="path17" inkscape:connector-curvature="0" fill="#004E73" d="M875.693,635.425c0-1.552-1.271-2.822-2.821-2.822h-89.17
		c-1.553,0-3.72,0.898-4.815,1.996l-6.543,6.544c-1.102,1.102-1.996,3.27-1.996,4.819v57.555c0,1.556,1.271,2.822,2.823,2.822
		h89.168c1.552,0,3.721-0.896,4.816-1.996l6.54-6.539c1.102-1.099,1.995-3.267,1.995-4.817L875.693,635.425L875.693,635.425z"/>
	<path id="path19" inkscape:connector-curvature="0" opacity="0.2" enable-background="new    " d="M863.159,672.744l-6.539-6.539
		c-1.097-1.099-3.268-1.996-4.816-1.996h-4.895c-1.552,0-2.82,0-2.82,0s0.896-0.896,1.995-1.996l17.075-17.076
		c1.101-1.098,0.729-1.997-0.823-1.997H836.38c-1.557,0-3.726,0.899-4.818,1.997l-59.146,59.143
		c-0.466,0.463-0.896,0.892-1.238,1.233c0.514,0.514,1.219,0.827,1.993,0.827c0.001,0,0.003,0,0.004,0h25.398h42.692
		c1.553,0,2.826-0.003,2.83-0.006c0.004-0.004,0.902-0.904,2.002-2.001l17.063-17.062c1.1-1.101,1.994-3.271,1.994-4.819v-4.889
		C865.156,676.01,864.26,673.842,863.159,672.744L863.159,672.744z"/>
	<path id="path21" inkscape:connector-curvature="0" fill="#FFFFFF" d="M836.377,674.741c-1.555,0-3.725-0.897-4.817-1.996
		l-6.533-6.537c-1.101-1.099-1.999-3.267-2-4.821l-0.004-4.89c-0.002-1.554,0.896-3.722,1.993-4.819l6.544-6.541
		c1.099-1.098,3.267-1.997,4.817-1.997h25.959c1.552,0,1.924,0.899,0.823,1.997l-6.541,6.541c-1.098,1.102-3.266,1.996-4.816,1.996
		h-15.426c-1.554,0-2.821,1.271-2.821,2.823v4.89c0,1.558,1.271,2.823,2.821,2.823l15.428-0.001c1.553,0,3.724,0.897,4.816,1.996
		l6.539,6.539c1.101,1.097,1.996,3.266,1.996,4.818v4.888c0,1.554-0.896,3.723-1.996,4.821l-6.542,6.538
		c-1.099,1.099-3.267,1.994-4.816,1.994h-15.424c-1.555,0-3.723-0.896-4.817-1.994l-6.543-6.538c-1.1-1.101-0.729-1.996,0.828-1.996
		h25.957c1.555,0,2.822-1.271,2.822-2.825v-4.888c0-1.557,0-2.822,0.002-2.822c0,0-1.271,0-2.822,0L836.377,674.741L836.377,674.741
		z"/>
	<g id="g23" transform="matrix(0.19899064,0,0,0.19899064,505.40055,700.74525)" opacity="0.2">
		<path id="path25" inkscape:connector-curvature="0" d="M1331.429-168.703c0-7.808,0-14.35,0-14.551
			c0-0.196,4.515-4.873,10.031-10.394l85.809-85.804c5.521-5.516,16.426-10.036,24.219-10.036h130.463
			c7.803,0,9.673,4.52,4.152,10.036l-85.819,85.799c-5.516,5.516-10.036,10.031-10.036,10.031s6.39,0.005,14.198,0.005l24.557,0.01
			c7.798,0.005,13.722,6.38,13.177,14.168l-1.423,19.91c-0.555,7.779-2.184,15.321-3.622,16.759
			c-1.438,1.438-7.121,7.126-12.632,12.637l-32.189,32.184c-5.516,5.511-10.07,10.065-10.119,10.11
			c-0.044,0.054,6.301,0.088,14.099,0.083h22.963c7.803,0,18.884,4.314,24.626,9.599l34.275,31.541
			c5.737,5.281,10.448,9.737,10.291,9.903c-0.167,0.157-4.809,4.795-10.33,10.316l-44.477,44.507l-188.004,0.005
			c-7.803,0-14.193-6.39-14.193-14.188L1331.429-168.703z"/>
	</g>
	<path id="path27" inkscape:connector-curvature="0" fill="#FFFFFF" d="M794.236,685.275c-1.552,0-2.821-1.271-2.821-2.823v-4.894
		c0-1.553,1.271-2.818,2.821-2.818h15.425c1.554,0,2.822-1.271,2.822-2.823v-4.881c0-1.553-1.271-2.824-2.822-2.824h-15.425
		c-1.552,0-2.821-1.271-2.821-2.823v-4.891c0-1.553,1.271-2.823,2.821-2.823h15.425c1.554,0,3.723-0.896,4.818-1.996l6.543-6.542
		c1.1-1.097,0.729-1.992-0.825-1.992h-25.961c-1.552,0-3.722,0.896-4.816,1.995l-6.541,6.538c-1.101,1.102-1.996,3.271-1.996,4.819
		v25.955c0,1.553,0.896,3.723,1.996,4.818l6.541,6.54c1.099,1.1,3.269,1.993,4.816,1.993h25.96c1.553,0,1.924-0.896,0.826-1.993
		l-6.543-6.544c-1.098-1.099-3.268-1.994-4.818-1.994L794.236,685.275L794.236,685.275z"/>
</g>
<g>
	<path d="M678.029,684.17c0.229,0.014,0.454,0.027,0.684,0.044c1.742,0.12,3.408,0.529,4.969,1.338
		c1.11,0.578,2.101,1.327,2.979,2.222c0.955,0.971,1.745,2.058,2.345,3.278c0.437,0.899,0.736,1.849,0.946,2.82
		c0.259,1.197,0.343,2.408,0.291,3.628c-0.082,1.955-0.516,3.825-1.438,5.564c-0.646,1.215-1.482,2.276-2.479,3.223
		c-1.601,1.51-3.477,2.496-5.629,2.952c-0.798,0.169-1.604,0.271-2.417,0.3c-0.036,0.002-0.073,0.012-0.106,0.019h-0.959
		c-0.209-0.015-0.416-0.026-0.625-0.045c-2.495-0.181-4.771-0.947-6.744-2.521c-1.562-1.238-2.777-2.75-3.608-4.565
		c-0.425-0.923-0.706-1.889-0.896-2.885c-0.214-1.127-0.281-2.264-0.228-3.406c0.121-2.401,0.754-4.646,2.148-6.641
		c1.634-2.328,3.77-3.984,6.523-4.785c0.842-0.244,1.695-0.406,2.568-0.473c0.276-0.021,0.555-0.032,0.831-0.05
		c0.046-0.006,0.091-0.016,0.137-0.021L678.029,684.17L678.029,684.17z M677.649,706.294c0.888-0.007,1.744-0.08,2.588-0.288
		c1.834-0.452,3.357-1.404,4.569-2.854c1.234-1.479,1.88-3.199,2.056-5.106c0.063-0.653,0.066-1.307,0.027-1.961
		c-0.042-0.711-0.136-1.414-0.323-2.102c-0.589-2.146-1.794-3.857-3.646-5.1c-1.388-0.926-2.938-1.35-4.589-1.432
		c-0.901-0.044-1.802-0.004-2.69,0.158c-1.555,0.278-2.938,0.925-4.133,1.971c-1.157,1.014-1.992,2.244-2.514,3.689
		c-0.392,1.099-0.548,2.229-0.563,3.391c-0.014,0.896,0.052,1.794,0.246,2.674c0.354,1.586,1.065,2.987,2.185,4.18
		c0.979,1.057,2.149,1.813,3.516,2.274C675.444,706.157,676.55,706.282,677.649,706.294"/>
	<path d="M723.146,708.987c-0.096,0.227-0.166,0.271-0.423,0.271c-0.838,0-1.675,0.001-2.512,0c-0.299,0-0.404-0.104-0.404-0.405
		V684.88c0-0.308,0.105-0.415,0.42-0.415c0.839,0,1.676-0.003,2.513,0.005c0.104,0.001,0.216,0.041,0.307,0.1
		c0.054,0.029,0.066,0.128,0.104,0.192L723.146,708.987L723.146,708.987z"/>
	<path d="M654.865,694.524c0.422,0.561,0.84,1.111,1.261,1.671c0.888,1.18,1.771,2.354,2.659,3.537
		c1.144,1.516,2.278,3.028,3.422,4.548c1.117,1.481,2.234,2.97,3.354,4.454c0.083,0.106,0.12,0.222,0.061,0.348
		c-0.061,0.129-0.177,0.171-0.31,0.178c-0.063,0.003-0.121,0-0.183,0c-1.031,0-2.063,0-3.097,0.003
		c-0.177,0-0.305-0.061-0.416-0.207c-1.941-2.6-3.895-5.191-5.843-7.793c-1.104-1.474-2.215-2.944-3.32-4.423
		c-0.009-0.013-0.021-0.021-0.033-0.042c-0.137,0.126-0.27,0.25-0.399,0.373c-0.896,0.84-1.795,1.68-2.69,2.521
		c-0.494,0.462-0.987,0.925-1.484,1.384c-0.063,0.059-0.092,0.116-0.092,0.205c0.003,2.511,0.003,5.021,0.003,7.53
		c0,0.029,0.002,0.063,0,0.095c-0.008,0.229-0.123,0.354-0.354,0.354c-0.881,0.004-1.759,0.004-2.638,0.001
		c-0.228-0.001-0.342-0.126-0.349-0.351c0-0.026,0-0.057,0-0.08v-23.948c0-0.303,0.109-0.414,0.41-0.414c0.805,0,1.605,0,2.408,0
		c0.054,0,0.106-0.002,0.159,0c0.23,0.011,0.349,0.125,0.355,0.357c0.002,0.033,0,0.064,0,0.103v11.759
		c0.198-0.186,0.38-0.354,0.561-0.521c1.06-0.995,2.119-1.989,3.179-2.983c1.394-1.304,2.781-2.604,4.174-3.908
		c1.165-1.093,2.329-2.187,3.494-3.276c0.492-0.461,0.982-0.92,1.476-1.382c0.104-0.102,0.22-0.146,0.356-0.146
		c1.229,0,2.459,0,3.688,0c0.209,0,0.327,0.077,0.37,0.232c0.035,0.13-0.015,0.229-0.104,0.313
		c-0.354,0.339-0.712,0.678-1.068,1.016c-0.631,0.597-1.264,1.188-1.896,1.781c-0.875,0.824-1.75,1.648-2.623,2.478
		c-0.896,0.846-1.791,1.689-2.688,2.539C656.072,693.39,655.474,693.951,654.865,694.524"/>
	<path d="M694.053,696.866v-11.94c0-0.034-0.001-0.064,0-0.104c0.005-0.229,0.119-0.342,0.342-0.355
		c0.017-0.001,0.03-0.001,0.047-0.001c3.413,0.001,6.826-0.007,10.239,0.006c1.567,0.009,3.072,0.358,4.505,0.999
		c1.247,0.563,2.344,1.335,3.296,2.313c1.549,1.592,2.578,3.47,3.085,5.637c0.291,1.247,0.411,2.51,0.385,3.787
		c-0.032,1.717-0.332,3.385-0.98,4.979c-0.543,1.326-1.32,2.513-2.302,3.563c-1.508,1.612-3.332,2.671-5.477,3.189
		c-0.926,0.224-1.857,0.319-2.813,0.319c-3.311-0.006-6.613-0.003-9.921-0.003c-0.059,0-0.113-0.004-0.171-0.013
		c-0.122-0.02-0.195-0.093-0.221-0.214c-0.013-0.063-0.019-0.128-0.019-0.192C694.053,704.85,694.053,700.858,694.053,696.866
		 M697.393,706.069h0.146c2.226,0,4.445,0.002,6.667-0.002c0.398-0.001,0.802-0.021,1.196-0.054
		c0.824-0.063,1.612-0.279,2.364-0.628c0.981-0.45,1.812-1.104,2.521-1.918c0.663-0.756,1.188-1.596,1.574-2.521
		c0.41-0.986,0.632-2.02,0.714-3.081c0.076-0.975,0.045-1.938-0.103-2.899c-0.173-1.138-0.542-2.21-1.113-3.209
		c-0.637-1.108-1.456-2.063-2.509-2.798c-1.261-0.88-2.675-1.289-4.204-1.296c-2.378-0.012-4.756-0.005-7.135-0.005h-0.123v18.409
		L697.393,706.069L697.393,706.069z"/>
	<path fill="#31AFE1" d="M710.572,649.219c-0.173,0.563-0.552,0.976-0.958,1.376c-2.719,2.708-5.428,5.428-8.14,8.145
		c-0.979,0.978-2.021,0.974-3.003-0.01c-2.799-2.804-5.601-5.604-8.396-8.402c-0.953-0.954-0.951-1.997,0.004-2.953
		c2.813-2.818,5.631-5.636,8.443-8.451c0.916-0.917,1.99-0.918,2.906-0.002c2.729,2.729,5.454,5.463,8.188,8.188
		c0.406,0.4,0.784,0.813,0.955,1.377L710.572,649.219L710.572,649.219z"/>
	<g>
		<g>
			<g>
				<g>
					<g>
						<defs>
							<rect id="SVGID_1_" x="644.416" y="621.979" width="84.041" height="87.841"/>
						</defs>
						<clipPath id="SVGID_2_">
							<use xlink:href="#SVGID_1_"  overflow="visible"/>
						</clipPath>
						<path clip-path="url(#SVGID_2_)" fill="#31AFE1" d="M683.591,675.463c-0.561-0.179-0.962-0.563-1.364-0.97
							c-2.706-2.72-5.421-5.435-8.133-8.146c-0.973-0.973-0.974-2.009-0.003-2.979c2.808-2.813,5.61-5.618,8.42-8.427
							c0.936-0.937,2.003-0.938,2.933-0.012c2.81,2.813,5.613,5.618,8.42,8.432c0.964,0.966,0.967,2.021,0.007,2.979
							c-2.732,2.739-5.475,5.478-8.202,8.22c-0.393,0.395-0.794,0.743-1.339,0.898h-0.735L683.591,675.463L683.591,675.463z"/>
					</g>
				</g>
			</g>
		</g>
		<g>
			<g>
				<g>
					<g>
						<defs>
							<rect id="SVGID_3_" x="644.416" y="621.979" width="84.041" height="87.841"/>
						</defs>
						<clipPath id="SVGID_4_">
							<use xlink:href="#SVGID_3_"  overflow="visible"/>
						</clipPath>
						<path clip-path="url(#SVGID_4_)" fill="#31AFE1" d="M673.74,642.119c0-3.122,0.028-6.246-0.019-9.368
							c-0.014-0.904,0.203-1.611,0.894-2.207c0.559-0.479,1.047-1.033,1.566-1.555c2.059-2.063,4.115-4.118,6.173-6.178
							c0.97-0.971,2.013-0.971,2.979,0.001c2.802,2.8,5.602,5.602,8.397,8.398c0.961,0.963,0.961,2.021-0.002,2.983
							c-3.313,3.313-6.621,6.628-9.933,9.938c-2.926,2.932-5.851,5.854-8.771,8.781c-0.542,0.541-1.021,0.415-1.22-0.336
							c-0.063-0.232-0.064-0.484-0.064-0.729C673.74,648.61,673.74,645.366,673.74,642.119"/>
					</g>
				</g>
			</g>
		</g>
	</g>
	<path fill="#31AFE1" d="M667.047,648.888c0,2.865,0.005,5.732-0.006,8.603c-0.004,0.271-0.047,0.56-0.145,0.813
		c-0.189,0.498-0.551,0.563-0.927,0.188c-1.317-1.316-2.633-2.639-3.947-3.953c-1.521-1.523-3.042-3.047-4.563-4.572
		c-0.632-0.629-0.636-1.505-0.009-2.139c2.802-2.831,5.603-5.663,8.399-8.492c0.188-0.188,0.359-0.441,0.675-0.323
		c0.302,0.114,0.42,0.386,0.463,0.688c0.024,0.188,0.048,0.375,0.048,0.563c0.005,2.877,0.003,5.755,0.003,8.633h0.005
		L667.047,648.888L667.047,648.888z"/>
	<polygon points="726.313,684.854 725.704,684.854 725.704,686.398 725.511,686.398 725.511,684.854 724.906,684.854 
		724.906,684.664 726.313,684.664 	"/>
	<polygon points="728.245,684.664 728.245,686.398 728.052,686.398 728.052,684.963 727.407,685.788 726.758,684.963 
		726.758,686.398 726.562,686.398 726.562,684.664 726.787,684.664 727.407,685.486 728.021,684.664 	"/>
</g>
<g>
	<path fill="#231815" d="M548.47,649.328c0.607,1.709,2.198,2.314,6.961,2.196h28.331l0.486,1.343
		c-11.232,15.266-22.959,30.771-33.461,46.771h15.634c9.646,0,11.846-2.808,18.684-11.846l1.709,1.099
		c-1.099,3.18-3.052,8.063-5.25,13.438h-39.688l-0.242-0.979c11.602-15.264,22.714-31.018,33.338-47.136h-12.578
		c-10.013,0-11.967,3.053-17.341,11.724l-1.954-0.608c1.101-3.542,2.931-11.479,3.907-16.118L548.47,649.328z M591.116,645.977
		h-55.674v63.847h55.674V645.977z"/>
	<g>
		<path fill="#231815" d="M612.228,622.388c-2.686,4.692-4.798,9.033-6.335,13.024c-1.534,3.992-2.484,7.514-2.848,10.563h-3.37
			c0.404-3.007,1.371-6.438,2.891-10.292c1.521-3.854,3.552-8.001,6.096-12.438h-12.687v-2.858h16.253V622.388L612.228,622.388z"/>
	</g>
</g>
<g>
	<path fill="#353231" d="M759.772,166.137c-19.92,6.839-45.861-3.765-66.715-12.286c-17.699-7.232-31.688-10.385-41.314-5.914
		c-2.675,1.242-6.247,3.89-8.05,9.453c-4.867,14.979-4.376,26.9-2.913,34.718h-13.83c-3.165,0-5.726,2.932-5.726,6.55v13.753
		c0,3.619,2.562,6.55,5.726,6.55h40.563c3.155,0,5.718-2.931,5.718-6.55v-13.753c0-3.619-2.563-6.55-5.718-6.55h-13.618
		c-1.479-5.79-2.666-16.369,2.002-30.753c0.463-1.411,0.974-1.649,1.252-1.776c4.563-2.118,18.634,3.641,31.063,8.719
		c22.832,9.331,51.25,18.375,75.729,9.974L759.772,166.137z"/>
	<path fill="#3D3938" d="M766.558,205.536H521.054v0.221c-60.119,3.542-107.784,53.399-107.784,114.406
		c0,63.308,51.32,114.627,114.627,114.627c36.483,0,68.963-17.067,89.953-43.626h58.754c20.994,26.559,53.47,43.626,89.953,43.626
		c63.312,0,114.631-51.32,114.631-114.627C881.188,256.856,829.865,205.536,766.558,205.536z"/>
	<circle fill="#F2EFEF" cx="770.515" cy="320.163" r="78.592"/>
	<g>
		<g>
			<circle fill="#BF2026" cx="729.897" cy="320.205" r="20.144"/>
			<path fill="#6DAE44" d="M830.621,320.205c0,11.125-9.021,20.144-20.146,20.144c-11.127,0-20.149-9.019-20.149-20.144
				s9.022-20.145,20.149-20.145C821.6,300.061,830.621,309.08,830.621,320.205z"/>
		</g>
		<g>
			<path fill="#FAAB18" d="M790.326,273.714c0,11.127-9.019,20.147-20.146,20.147c-11.119,0-20.146-9.021-20.146-20.147
				c0-11.123,9.022-20.144,20.146-20.144C781.312,253.57,790.326,262.591,790.326,273.714z"/>
			<path fill="#DB6026" d="M790.326,366.611c0,11.125-9.019,20.144-20.146,20.144c-11.119,0-20.146-9.019-20.146-20.144
				c0-11.127,9.022-20.147,20.146-20.147C781.312,346.464,790.326,355.484,790.326,366.611z"/>
		</g>
	</g>
	<g>
		<path fill="#F2EFEF" d="M605.948,321.228c0,43.407-35.185,78.592-78.592,78.592c-43.405,0-78.59-35.188-78.59-78.592
			c0-43.404,35.185-78.592,78.59-78.592C570.768,242.635,605.948,277.823,605.948,321.228z"/>
		<path fill="#353231" d="M575.62,310.945h-37.979v-37.979c0-3.384-2.974-6.033-6.771-6.033h-7.021
			c-3.797,0-6.771,2.649-6.771,6.033v37.979h-37.978c-3.386,0-6.033,2.976-6.033,6.771v7.021c0,3.797,2.646,6.771,6.033,6.771
			h37.978v37.98c0,3.383,2.977,6.031,6.771,6.031h7.021c3.8,0,6.771-2.648,6.771-6.031v-37.98h37.979
			c3.385,0,6.033-2.974,6.033-6.771v-7.021C581.656,313.92,579.005,310.945,575.62,310.945z"/>
	</g>
	<path fill="#DB6026" d="M642.522,270.549c0,7.086-5.744,12.832-12.836,12.832h-4.914c-7.09,0-12.832-5.745-12.832-12.832v-29.086
		c0-7.088,5.742-12.832,12.832-12.832h4.914c7.092,0,12.836,5.744,12.836,12.832V270.549z"/>
	<path fill="#6DAE44" d="M687.859,270.549c0,7.086-5.743,12.832-12.835,12.832h-4.913c-7.093,0-12.835-5.745-12.835-12.832v-29.086
		c0-7.088,5.742-12.832,12.835-12.832h4.913c7.092,0,12.835,5.744,12.835,12.832V270.549z"/>
	<circle fill="#FAAB18" cx="647.225" cy="320.205" r="20.144"/>
</g>
<g>
	<path fill="#3D3938" d="M461.558,569.301v-30.202l-2.3,7.303l-9.4-3.001l11.603-37.002h-11.303v-10.803h11.401v-16.001h10.801
		v16.001h11.3v10.803h-11.3v8.501l11.9,18.301l-8.2,5.3l-3.7-5.6v36.4H461.558z M531.063,569.4L515.659,552.3l-10.698,16.9
		l-9.103-5.7l12.301-19.501l-11.899-13.301l-5.2,38.202l-10.603-1.4l10.502-76.704h-6.602v-10.801h51.303v13.501l-13.199,15.101
		h13.199v12.103L521.56,542.9l17.399,19.399L531.063,569.4z M523.762,519.397h-14.301v-12.303l14.199-16.301h-21.899l-3.603,26.001
		l16.001,17.802L523.762,519.397z"/>
	<path fill="#3D3938" d="M577.259,536.099L558.858,569.5l-9.5-5.2l18.501-33.302L577.259,536.099z M601.061,497.096v20.604h38.103
		V528.5h-38.103v40.9h-23.802V558.6h13.001v-30.102h-35.304v-45.803h67.205l7.802-3.103l3.898,10.001l-9.601,3.8h-58.604v24.304
		h24.604v-20.604L601.061,497.096L601.061,497.096z M621.062,530.998l18.501,33.302l-9.5,5.2l-18.401-33.401L621.062,530.998z"/>
	<path fill="#3D3938" d="M765.362,540.898H733.06l31.702,17.399l-5.2,9.501l-33.702-18.502V569.3h-10.801v-20.002L681.455,567.8
		l-5.198-9.501l31.502-17.399h-32.202v-10.803h39.502v-4.6h-32.002v-45.903h74.904v45.903h-32.104v4.6h39.503L765.362,540.898
		L765.362,540.898z M693.857,496.996h21.201v-6.603h-21.201V496.996z M693.857,514.797h21.201v-7h-21.201V514.797z M747.159,490.396
		h-21.302v6.603h21.302V490.396z M747.159,514.797v-7h-21.302v7H747.159z"/>
	<path fill="#3D3938" d="M865.16,569.301h-89.403V558.5h7.6v-22.201h74.305V558.5h7.501L865.16,569.301L865.16,569.301z
		 M846.761,508.597h-52.604v-4.5l-14.601,5.302l-3.7-10.103l39.202-14.501v-5h10.801v5l39.104,14.501l-3.603,10.103l-14.601-5.302
		L846.761,508.597L846.761,508.597z M851.861,511.097V533.7h-62.804v-22.604H851.861L851.861,511.097z M794.058,558.5h11.501
		l-5.9-5.9l5.4-5.501h-11.001V558.5z M842.061,523.798v-2.801h-43.104v2.801H842.061z M808.759,498.696h23.399l-11.699-4.301
		L808.759,498.696z M818.657,552.6l-5.898,5.9h15.398l-5.898-5.9l5.398-5.501h-14.501L818.657,552.6z M846.86,547.099h-11.1
		l5.501,5.501l-5.9,5.9h11.5L846.86,547.099L846.86,547.099z"/>
</g>
<path fill="#010101" d="M508.397,692.488c-1.766-2.163-3.566-4.394-5.351-6.629c-0.653-0.819-1.523-1.233-2.585-1.233h-0.031
	c-0.708,0.006-1.419,0.006-1.959,0.006l-1.589-0.002c-0.42,0-0.841,0-1.263,0.003c-0.158-1.124-0.937-1.761-2.188-1.761
	l-0.776-0.001c-0.513-0.002-1.025-0.002-1.541-0.002c-0.782,0-1.445,0.002-2.052,0.003c0.006-0.557,0.006-1.074,0-1.561
	c0.757,0.005,1.405,0.006,2.013,0.006c0.856,0,1.632-0.005,2.371-0.013c0.433-0.004,0.851-0.104,1.173-0.276
	c0.466-0.25,0.811-0.723,0.974-1.328c0.183-0.684,0.099-1.406-0.229-1.938c-0.276-0.451-0.829-0.989-1.88-0.989l-0.73-0.003
	c-0.546-0.001-1.093-0.001-1.639-0.001c-0.777,0-1.439,0.001-2.05,0.005c0.007-0.471,0.007-0.915,0-1.352
	c0.763,0.005,1.414,0.007,2.021,0.007c0.852,0,1.622-0.004,2.354-0.012c0.438-0.004,0.859-0.104,1.191-0.274
	c1.08-0.562,1.04-1.717,1.025-2.149c-0.042-1.269-0.882-2.09-2.135-2.091l-1.32-0.003c-0.965-0.004-1.929-0.005-2.894-0.005
	c-0.984,0-1.852,0.003-2.649,0.008c-0.351,0.003-0.729,0.098-1.063,0.268c-1.069,0.546-1.067,1.653-1.067,2.017
	c0.001,1.572,0.001,3.145,0.002,4.717c0,2.202,0.001,4.478,0.005,6.723c-0.235-0.004-0.493-0.005-0.782-0.005
	c-0.252,0-0.503,0.001-0.756,0.003c-0.188,0.002-0.376,0.002-0.563,0.003v-2.744c0-3.392-0.001-6.784,0.003-10.176
	c0.001-1.25-0.654-1.786-1.205-2.017c-0.406-0.171-0.838-0.191-1.246-0.198c-0.021,0-0.04-0.001-0.059-0.001
	c-1.429,0-2.249,0.83-2.249,2.276v2.035c-0.001,3.55-0.001,7.215,0.005,10.827c-1.518-0.004-3.095-0.005-4.694-0.005
	c-1.475,0-2.95,0.001-4.425,0.004c0.007-2.459,0.007-4.954,0-7.429c0.669,0.003,1.399,0.004,2.304,0.004
	c0.472,0,2.517-0.001,2.517-0.001c1.372,0,2.226-0.852,2.226-2.221c0.001-2.49,0.001-4.98,0-7.472
	c-0.001-1.366-0.854-2.216-2.228-2.216c-1.272,0-2.542-0.001-3.813-0.001h-3.592c-1.445,0-2.273,0.827-2.273,2.27v17.062
	c-1.032-0.002-2.064-0.004-3.098-0.004c-1.129,0-2.259,0.002-3.389,0.004c0-0.015,0-0.026,0-0.04
	c0.246,0.002,0.509,0.005,0.807,0.005c0.309,0,0.615-0.001,0.922-0.003l0.471-0.002c1.368-0.006,2.221-0.859,2.221-2.228
	c0.001-2.582,0-5.166,0-7.748v-1.457c0-1.409-0.847-2.25-2.264-2.25h-9.146c-1.442,0-2.268,0.83-2.27,2.276
	c-0.001,3.038-0.001,6.076,0,9.112c0,1.478,0.81,2.294,2.279,2.297l0.531,0.001c0.261,0.001,0.521,0.001,0.782,0.001
	c0.263,0,0.5-0.001,0.717-0.002c0,0.014,0,0.027,0,0.041c-1.136-0.004-2.309-0.005-3.573-0.005c-1.157,0-2.316,0.001-3.478,0.004
	c-0.157,0-0.246-0.042-0.354-0.159c-0.749-0.831-1.5-1.659-2.25-2.489c0,0-0.994-1.097-1.004-1.107c0.251,0,0.502,0.001,0.753,0.001
	c0.505,0,1.011-0.001,1.516-0.004c1.239-0.007,2.112-0.85,2.124-2.048c0.016-1.919,0.016-3.895,0-5.872
	c-0.012-1.2-0.872-2.042-2.095-2.044l-0.707-0.002c-1.099-0.003-2.195-0.006-3.294-0.006c-1.01,0-1.904,0.003-2.735,0.009
	c-0.348,0.003-0.728,0.103-1.069,0.28c-0.691,0.362-1.041,1.021-1.041,1.957c0,1.435-0.001,2.866-0.003,4.299
	c-0.003,2.355-0.004,4.787,0.001,7.188c-0.325-0.007-0.663-0.011-1.021-0.011c-0.355,0-0.737,0.004-1.156,0.011
	c0.008-4.838,0.008-9.817,0.001-14.814c0.794,0.007,1.592,0.01,2.374,0.01c0.935,0,1.876-0.006,2.798-0.014
	c0.303-0.003,0.751-0.051,1.161-0.263c1.084-0.557,1.058-1.679,1.048-2.102c-0.03-1.305-0.874-2.147-2.15-2.147
	c-1.398-0.001-2.799-0.001-4.198-0.003c-1.815-0.001-3.633-0.003-5.448-0.003c-1.787,0-3.573,0.002-5.361,0.005
	c-0.36,0.001-0.753,0.1-1.078,0.271c-0.903,0.479-1.229,1.397-0.968,2.729c0.181,0.919,0.989,1.515,2.062,1.516
	c0.852,0.003,1.703,0.003,2.556,0.003c0.918,0,1.756,0,2.551-0.004c-0.007,4.59-0.007,9.445-0.001,14.813
	c-0.324-0.003-0.656-0.005-0.991-0.005c-0.344,0-0.702,0.002-1.07,0.005c-0.169-1.12-0.958-1.752-2.22-1.752
	c-0.479,0-0.958-0.002-1.437-0.003c-0.552-0.002-1.104-0.003-1.655-0.003c-0.459,0-0.877,0.001-1.265,0.003
	c0.008-0.511,0.008-1.033,0-1.563c0.71,0.004,1.368,0.007,2.002,0.007c0.837,0,1.611-0.004,2.371-0.013
	c0.306-0.002,0.756-0.051,1.164-0.261c0.929-0.479,1.316-1.577,0.988-2.802c-0.233-0.875-1.065-1.468-2.068-1.47l-0.517-0.002
	c-0.792-0.003-1.584-0.006-2.376-0.006c-0.563,0-1.079,0.002-1.563,0.005c0.008-0.479,0.008-0.925-0.001-1.348
	c0.639,0.006,1.327,0.007,2.092,0.007c0.784,0,1.568-0.003,2.352-0.006c1.204-0.004,1.988-0.678,2.154-1.85
	c0.11-0.774-0.064-1.476-0.494-1.971c-0.386-0.446-0.954-0.693-1.597-0.696c-1.487-0.007-2.693-0.009-3.797-0.009
	c-1.125,0-2.15,0.002-3.132,0.009c-0.351,0.003-0.72,0.095-1.04,0.261c-0.483,0.251-1.059,0.788-1.057,1.917
	c0.002,1.553,0.002,3.105,0.002,4.661c0,2.255,0.002,4.583,0.008,6.881c-0.552-0.006-1.095-0.007-1.613-0.007
	c-0.635,0-1.265,0.004-1.869,0.011h-0.008c-0.064,0-0.089-0.009-0.089-0.009c-0.001-0.001-0.025-0.02-0.064-0.086
	c-0.716-1.216-1.449-2.446-2.16-3.639c-0.265-0.444-0.53-0.89-0.796-1.335c-0.462-0.776-1.401-2.356-1.401-2.356l1.784,0.002
	c0.713,0,1.418-0.002,2.129-0.002c1.251-0.002,2.129-0.858,2.136-2.081c0.014-2.475,0.014-5.004,0.001-7.734
	c-0.005-1.207-0.886-2.087-2.095-2.09c-1.112-0.003-2.225-0.004-3.338-0.004c-1.628,0-3.067,0.003-4.396,0.01
	c-0.347,0.003-0.717,0.098-1.042,0.271c-0.688,0.362-1.034,1.011-1.033,1.922c0.004,4.528,0.004,9.136,0.004,13.589v3.536
	c-0.384,0-2.02-0.002-2.454-0.002c-0.956,0-1.692,0.004-2.387,0.006h-0.008c-0.196,0-0.27-0.049-0.358-0.16
	c-0.034-0.043-0.067-0.085-0.103-0.128c0.019-0.043,0.037-0.085,0.054-0.133c0.199-0.461,0.283-1.028,0.3-1.214
	c0.334-0.396,0.372-1.206,0.372-1.541v-0.145l-0.053-0.132c-0.007-0.018-0.015-0.036-0.025-0.054
	c-0.058-0.182-0.155-0.351-0.291-0.497c-0.032-0.037-0.067-0.07-0.103-0.103c0.012-0.149,0.018-0.3,0.014-0.402l-0.01-0.243
	l-0.093-0.116c-0.199-0.452-0.671-0.705-0.96-0.83c-0.007-0.036-0.016-0.066-0.025-0.095l-0.166-0.495l-0.128-0.003
	c-0.097-0.104-0.212-0.198-0.346-0.274c-0.24-0.139-0.484-0.206-0.679-0.259c-0.068-0.018-0.135-0.036-0.192-0.055
	c-0.066-0.124-0.166-0.258-0.317-0.384c-0.296-0.243-0.655-0.342-0.899-0.394l-0.011-0.003c-0.081-0.017-0.162-0.028-0.232-0.04
	c-0.099-0.015-0.184-0.028-0.254-0.049c-0.024-0.007-0.053-0.016-0.078-0.023c-0.042-0.052-0.104-0.114-0.183-0.174
	c-0.425-0.323-0.904-0.364-1.291-0.398c-0.167-0.017-0.325-0.029-0.433-0.063c-0.02-0.007-0.076-0.039-0.115-0.063
	c-0.117-0.07-0.279-0.166-0.496-0.225c-0.238-0.066-0.489-0.102-0.748-0.102c-0.034,0-0.07,0.001-0.103,0.001
	c-0.03,0.002-0.059,0.002-0.089,0.002c-0.156,0-0.293-0.014-0.418-0.041c-0.027-0.007-0.079-0.029-0.127-0.05
	c-0.111-0.047-0.25-0.104-0.422-0.14c-0.167-0.034-0.339-0.052-0.541-0.052c-0.126,0-0.246,0.007-0.359,0.012
	c-0.09,0.007-0.175,0.011-0.255,0.013c0.125-1.588,0.262-3.354,0.361-4.624v-0.002c1.534-0.844,2.568-2.399,2.738-4.156
	c0.019-0.157,0.026-0.322,0.026-0.52c0.002-2.938-2.393-5.33-5.336-5.33c-0.094,0-0.19,0.002-0.297,0.008
	c-0.022,0.001-0.044,0.003-0.066,0.006l-0.022,0.001c-0.069,0.005-0.138,0.011-0.207,0.018c-0.027,0.003-0.054,0.007-0.081,0.012
	l-0.018,0.003c-0.065,0.009-0.13,0.019-0.195,0.028c-0.031,0.005-0.063,0.012-0.094,0.018c-0.067,0.012-0.134,0.024-0.202,0.042
	c0,0-0.059,0.014-0.079,0.018c-0.074,0.02-0.148,0.037-0.229,0.062c0,0-0.036,0.011-0.048,0.014
	c-0.373,0.113-0.736,0.267-1.078,0.46l-0.021,0.013c-0.076,0.042-0.151,0.089-0.225,0.134l-0.032,0.021
	c-0.07,0.046-0.141,0.092-0.208,0.142l-0.033,0.023c-0.066,0.05-0.133,0.101-0.2,0.153c-0.01,0.007-0.021,0.016-0.028,0.021
	c-0.065,0.055-0.131,0.109-0.194,0.166c-0.008,0.007-0.016,0.014-0.025,0.021c-0.065,0.061-0.131,0.122-0.192,0.185
	c-0.045,0.045-0.089,0.092-0.133,0.138l-0.015,0.018c-0.01,0.012-0.021,0.021-0.03,0.032c-0.088,0.096-0.162,0.182-0.229,0.268
	l-0.08,0.099l-0.005,0.016c-0.7,0.931-1.069,2.035-1.069,3.205c0,1.954,1.07,3.743,2.762,4.675c0.1,1.172,0.247,2.965,0.377,4.606
	c-0.024-0.003-0.051-0.004-0.077-0.005c-0.116-0.006-0.237-0.013-0.366-0.013c-0.179,0-0.337,0.014-0.491,0.041
	c-0.188,0.034-0.337,0.098-0.461,0.147c-0.056,0.021-0.108,0.043-0.146,0.055c-0.14,0.031-0.264,0.046-0.376,0.046
	c-0.022,0-0.048-0.001-0.075-0.002c-0.055-0.003-0.112-0.006-0.169-0.006c-0.284,0-0.578,0.043-0.845,0.124l-0.011,0.004
	c-0.185,0.059-0.318,0.143-0.417,0.204c-0.026,0.017-0.063,0.04-0.071,0.044c-0.118,0.037-0.282,0.052-0.456,0.067
	c-0.352,0.03-0.788,0.069-1.198,0.328l-0.015,0.011c-0.117,0.077-0.196,0.167-0.25,0.233c-0.012,0.004-0.027,0.009-0.046,0.015
	l-0.015,0.004c-0.08,0.022-0.182,0.04-0.288,0.058c-0.118,0.021-0.25,0.042-0.39,0.077l-0.018,0.006
	c-0.281,0.079-0.685,0.229-0.948,0.586l-0.011,0.015l-0.011,0.017c-0.027,0.041-0.052,0.082-0.068,0.122
	c-0.035,0.009-0.076,0.021-0.12,0.032c-0.329,0.09-0.871,0.235-1.182,0.632l-0.148,0.042c0,0-0.078,0.47-0.08,0.475
	c-0.232,0.097-0.478,0.227-0.687,0.442c-0.104,0.104-0.188,0.228-0.248,0.358l-0.063,0.073c0,0-0.032,0.268-0.033,0.276
	c-0.021,0.157-0.041,0.32-0.045,0.487c-0.201,0.205-0.336,0.443-0.386,0.694c-0.147,0.535,0.176,1.276,0.325,1.575l0.008,0.017
	l0.008,0.016c0.011,0.017,0.021,0.034,0.03,0.051c0,0.009,0,0.019,0.001,0.026c0.004,0.125,0.029,0.25,0.073,0.371
	c0.043,0.189,0.165,0.679,0.25,0.878c0.005,0.012,0.011,0.026,0.016,0.042c0.088,0.218,0.25,0.62,0.638,0.844l0.012,0.008
	c0.062,0.034,0.126,0.06,0.189,0.08c0.506,1.353,1.767,4.729,1.962,5.248c0.535,1.419,1.742,2.584,3.488,3.368
	c1.521,0.688,3.452,1.063,5.436,1.063c1.985,0,3.937-0.383,5.492-1.079c1.773-0.796,2.994-1.964,3.533-3.379l1.372-3.607
	c0.49,0.392,1.073,0.6,1.715,0.604c0.872,0.006,1.744,0.008,2.596,0.008c1.068,0,2.138-0.004,3.179-0.012
	c0.347-0.003,0.72-0.104,1.05-0.288c1.007-0.561,1.007-1.617,1.007-1.964c-0.001-1.728-0.001-3.455-0.001-5.182
	c0-0.85,0-1.705,0-2.563c1.516,2.563,3.172,5.346,5.195,8.729c0.487,0.814,1.277,1.267,2.227,1.272
	c0.73,0.006,1.391,0.007,2.019,0.007c0.834,0,1.6-0.004,2.342-0.012c0.347-0.005,0.718-0.104,1.042-0.279
	c0.632-0.343,0.976-0.938,1.021-1.769c0.3,0.176,0.697,0.294,1.223,0.294h0.149c0.387,0,0.771,0.002,1.157,0.002
	c0.386,0.001,0.773,0.001,1.158,0.001c0.772,0,1.391-0.001,1.96-0.006c0.054,0.451,0.236,0.846,0.535,1.155
	c0.379,0.392,0.925,0.607,1.54,0.61c0.577,0.002,1.15,0.004,1.728,0.004c0.543,0,1.085-0.002,1.629-0.004
	c0.697-0.005,1.283-0.298,1.653-0.776c0.372,0.486,0.968,0.774,1.707,0.776c0.48,0.001,0.961,0.001,1.442,0.001l1.877-0.001
	c1.416-0.002,2.228-0.817,2.228-2.238c0-1.278,0.001-2.555,0.003-3.83c0-0.181,0-0.36,0.001-0.543
	c0.033,0.041,0.068,0.083,0.105,0.125c1.603,1.777,3.32,3.678,5.019,5.537c0.567,0.62,1.331,0.949,2.209,0.949h4.354
	c1.124,0,2.249,0,3.373-0.002c0.854,0,1.514-0.369,1.862-0.995c0.341,0.609,0.991,0.992,1.781,0.994
	c1.157,0.003,2.314,0.004,3.472,0.004c1.618,0,3.054-0.003,4.391-0.01c0.352-0.001,0.722-0.098,1.046-0.271
	c0.3-0.16,0.536-0.377,0.708-0.647c0.361,0.601,1.02,0.927,1.921,0.927h10.11c0.864,0,1.51-0.297,1.887-0.846
	c0.369,0.528,0.987,0.843,1.756,0.844l0.558,0.002c0.386,0.001,0.771,0.002,1.157,0.002c0.64,0,1.162-0.004,1.646-0.012
	c0.373-0.006,0.749-0.098,1.059-0.257c0.663-0.342,1.017-0.949,1.05-1.807c0.06,0.033,0.121,0.064,0.185,0.094
	c0.298,0.137,0.662,0.206,1.08,0.21c0.77,0.006,1.569,0.009,2.376,0.009c0.653,0,1.333-0.003,2.025-0.006
	c0.15,1.1,0.947,1.765,2.156,1.767l1.033,0.001c0.584,0.001,1.17,0.001,1.755,0.001c1.01,0,1.833-0.002,2.599-0.005
	c0.21,0,0.292,0.057,0.387,0.177c0.738,0.927,1.497,1.863,2.23,2.771c0.3,0.372,0.602,0.744,0.901,1.116
	c0.741,0.918,1.481,1.836,2.221,2.754c0.144,0.177,0.521,0.646,1.17,0.646c0.099,0,0.196-0.012,0.295-0.032
	c0.473-0.104,0.848-0.429,1-0.871C508.859,693.464,508.75,692.919,508.397,692.488z M403.977,674.991
	c-0.001-2.309-0.003-4.633-0.005-6.938c1.056,0.006,2.135,0.009,3.21,0.009c1.047,0,2.119-0.003,3.193-0.008
	c-0.008,2.124-0.008,4.271,0,6.396c-0.791-0.005-1.614-0.008-2.502-0.008c-0.83,0-1.661,0.003-2.491,0.005
	C404.804,674.452,404.312,674.646,403.977,674.991z M439.724,678.114h-0.535c-0.703,0-1.128,0.278-1.379,0.566
	c0.001-1.667,0-3.352-0.004-5.021c0.874,0.006,1.787,0.007,2.715,0.007c0.884,0,1.782-0.003,2.74-0.007
	c-0.008,1.558-0.008,3.021,0,4.455c-0.631-0.004-1.236-0.005-1.714-0.005L439.724,678.114z M456.49,681.844
	c-0.789,0.011-1.424,0.384-1.758,0.988c-0.351-0.619-1.008-0.987-1.86-0.991l-0.282-0.002c-0.354-0.003-0.705-0.004-1.059-0.004
	c-0.309,0-0.583,0.001-0.84,0.004c0.008-2.694,0.008-5.441,0-8.178c1.35,0.005,2.725,0.006,4.093,0.006
	c1.343,0,2.714-0.003,4.089-0.006c-0.008,2.597-0.008,5.28-0.001,8.178c-0.34-0.004-0.685-0.006-1.031-0.006
	C457.404,681.833,456.948,681.836,456.49,681.844z M468.044,674.446c-0.665,0-1.205,0.189-1.584,0.543c0-2.313,0-4.624-0.001-6.936
	c0.998,0.006,2.04,0.008,3.169,0.008c0.984,0,2.019-0.003,3.222-0.006c-0.007,2.437-0.007,4.489,0.001,6.394
	c-0.697-0.003-1.449-0.004-2.378-0.004C469.936,674.446,468.044,674.446,468.044,674.446z M478.446,668.249
	c0.432,0.424,0.971,0.658,1.52,0.658c0.553,0,1.073-0.226,1.511-0.651c0.429-0.42,0.856-0.853,1.272-1.27
	c0.178-0.18,0.354-0.355,0.531-0.532c0.396-0.396,0.666-1.029,0.656-1.54c-0.008-0.449-0.271-1.071-0.612-1.446
	c-0.583-0.643-1.211-1.249-1.818-1.837l-0.05-0.048c-0.423-0.407-0.952-0.633-1.491-0.633c-0.536,0-1.063,0.224-1.484,0.629
	c-0.608,0.584-1.233,1.211-1.862,1.86c-0.854,0.885-0.845,2.12,0.023,3.002C477.2,667.014,477.79,667.604,478.446,668.249z
	 M479.882,664.25c0.026-0.027,0.055-0.055,0.083-0.082c0.011,0.011,0.021,0.022,0.032,0.033c0.238,0.238,0.48,0.481,0.727,0.726
	c-0.25,0.247-0.505,0.501-0.76,0.761c-0.26-0.263-0.518-0.521-0.76-0.761C479.434,664.702,479.659,664.474,479.882,664.25z"/>
<path fill="#FBE101" d="M478.964,667.376c0.601,0.593,1.392,0.597,1.995,0.006c0.604-0.593,1.198-1.197,1.798-1.797
	c0.274-0.275,0.445-0.729,0.439-1.003c-0.005-0.263-0.189-0.712-0.421-0.966c-0.583-0.643-1.21-1.246-1.834-1.851
	c-0.587-0.564-1.365-0.566-1.951-0.004c-0.625,0.604-1.238,1.217-1.843,1.842c-0.573,0.593-0.56,1.385,0.019,1.974
	C477.76,666.184,478.361,666.782,478.964,667.376z M478.299,664.437c0.521-0.509,1.032-1.027,1.55-1.543
	c0.036-0.035,0.081-0.063,0.124-0.101c0.049,0.047,0.089,0.082,0.126,0.119c0.508,0.508,1.011,1.021,1.527,1.521
	c0.127,0.124,0.103,0.192-0.009,0.302c-0.497,0.487-0.991,0.979-1.477,1.479c-0.141,0.146-0.229,0.13-0.361-0.007
	c-0.477-0.493-0.966-0.976-1.454-1.457C478.22,664.646,478.16,664.571,478.299,664.437z M507.534,693.746
	c-0.335,0.072-0.545-0.122-0.733-0.356c-0.74-0.92-1.48-1.838-2.222-2.756c-1.044-1.294-2.093-2.583-3.128-3.883
	c-0.257-0.322-0.564-0.455-0.973-0.452c-1.792,0.009-3.583,0.005-5.377,0.004c-0.923-0.002-1.445-0.498-1.443-1.417
	c0-0.299-0.104-0.354-0.375-0.353c-1.578,0.012-3.155,0.013-4.733-0.001c-0.263-0.003-0.546-0.037-0.781-0.144
	c-0.479-0.218-0.719-0.634-0.724-1.159c-0.012-0.987-0.012-1.976-0.001-2.962c0.008-0.776,0.544-1.311,1.322-1.313
	c1.664-0.007,3.327-0.007,4.992,0.003c0.227,0.001,0.302-0.066,0.296-0.291c-0.005-0.229-0.14-0.22-0.301-0.22
	c-1.02,0.003-2.039,0.001-3.06,0.001c-0.635,0-1.268,0.005-1.9-0.001c-0.813-0.007-1.348-0.538-1.354-1.353
	c-0.005-0.857-0.002-1.718-0.001-2.574c0.001-0.914,0.516-1.438,1.43-1.44c1.62-0.006,3.242-0.002,4.86-0.002
	c0.148,0,0.304,0.033,0.322-0.203c0.02-0.255-0.093-0.295-0.32-0.295c-2.146,0.009-4.293,0.011-6.439-0.001
	c-0.291-0.002-0.357,0.088-0.357,0.363c0.008,3.961,0.003,7.921,0.008,11.881c0.001,0.555-0.137,1.031-0.652,1.298
	c-0.218,0.113-0.487,0.172-0.734,0.176c-1.115,0.019-2.231,0.01-3.348,0.007c-0.869-0.003-1.399-0.531-1.399-1.404
	c-0.001-4.434-0.001-8.866-0.001-13.299c0-0.402-0.234-0.568-0.612-0.424c-0.043,0.018-0.081,0.088-0.092,0.138
	c-0.015,0.084-0.004,0.172-0.004,0.257c0,4.399,0,8.801,0,13.202c0,1.039-0.496,1.53-1.536,1.53c-3.37,0-6.74,0-10.11,0
	c-1.005,0-1.502-0.49-1.502-1.489c-0.001-2.823-0.001-5.646,0-8.469c0.001-1.001,0.502-1.506,1.493-1.506
	c1.739-0.001,3.478-0.004,5.218,0.004c0.229,0.002,0.331-0.03,0.33-0.304c-0.014-2.426-0.011-4.853-0.003-7.278
	c0.001-0.218-0.048-0.291-0.279-0.288c-2.438,0.01-4.874,0.014-7.31-0.003c-0.313-0.002-0.278,0.154-0.278,0.354
	c0.001,5.827,0.001,11.655,0.003,17.484c0,0.549-0.137,1.03-0.649,1.305c-0.208,0.109-0.465,0.183-0.699,0.183
	c-2.619,0.013-5.236,0.011-7.856,0.005c-0.718-0.001-1.243-0.451-1.298-1.158c-0.045-0.574-0.046-1.159-0.002-1.734
	c0.055-0.722,0.558-1.163,1.282-1.173c0.924-0.014,1.846-0.014,2.77,0.002c0.271,0.005,0.345-0.08,0.343-0.347
	c-0.008-2.994-0.01-5.989,0.001-8.982c0.001-0.276-0.081-0.33-0.34-0.328c-2.984,0.01-5.969,0.01-8.952,0
	c-0.276-0.002-0.368,0.064-0.366,0.354c0.012,2.983,0.012,5.968,0,8.951c-0.001,0.294,0.099,0.359,0.371,0.354
	c0.847-0.018,1.696-0.008,2.543-0.006c0.89,0.004,1.398,0.507,1.409,1.39c0.006,0.429,0.006,0.858,0,1.288
	c-0.012,0.881-0.53,1.395-1.406,1.395c-2.576,0.003-5.151,0.001-7.728,0.001c-0.656,0-1.227-0.229-1.666-0.709
	c-1.68-1.84-3.348-3.687-5.017-5.533c-0.266-0.294-0.415-0.646-0.229-1.033c0.188-0.392,0.541-0.521,0.958-0.521
	c1.482,0.003,2.962-0.007,4.444,0.008c0.273,0.003,0.37-0.057,0.369-0.352c-0.015-1.75-0.014-3.499-0.001-5.249
	c0.001-0.273-0.085-0.337-0.35-0.336c-2.072,0.011-4.142,0.013-6.214-0.001c-0.298-0.002-0.372,0.075-0.371,0.376
	c0.011,3.95,0,7.898,0,11.85c0,1.011-0.49,1.5-1.492,1.503c-1.105,0-2.21,0.003-3.315-0.003c-0.858-0.002-1.391-0.519-1.391-1.375
	c-0.004-5.354-0.004-10.711,0-16.066c0.001-0.893,0.52-1.391,1.439-1.395c1.867-0.004,3.735,0,5.602-0.004
	c0.138,0,0.313,0.059,0.324-0.19c0.011-0.209-0.027-0.3-0.271-0.298c-4.896,0.007-9.789,0.007-14.684,0.002
	c-0.183,0-0.306,0.012-0.303,0.249c0.002,0.244,0.144,0.242,0.316,0.242c1.825-0.001,3.65,0.002,5.476-0.003
	c0.538-0.002,1.01,0.141,1.271,0.646c0.11,0.21,0.188,0.465,0.188,0.698c0.011,5.389,0.01,10.775,0.005,16.163
	c-0.001,0.788-0.549,1.327-1.342,1.33c-1.115,0.005-2.232,0.004-3.35,0.001c-0.833-0.003-1.379-0.533-1.355-1.368
	c0.01-0.347-0.107-0.402-0.416-0.398c-1.578,0.014-3.156,0.005-4.733,0.007c-0.549,0-1.032-0.152-1.29-0.674
	c-0.117-0.24-0.173-0.531-0.18-0.801c-0.021-0.879-0.011-1.76-0.007-2.64c0.002-0.959,0.515-1.475,1.465-1.475
	c1.609-0.001,3.22,0,4.83-0.001c0.143,0,0.313,0.045,0.324-0.195c0.01-0.207-0.036-0.34-0.278-0.309
	c-0.063,0.009-0.129,0.002-0.191,0.002c-1.59,0-3.177,0.003-4.766-0.002c-0.759-0.001-1.292-0.396-1.339-1.143
	c-0.065-1.025-0.063-2.061,0-3.085c0.044-0.724,0.55-1.106,1.277-1.143c0.096-0.004,0.192-0.001,0.29-0.001
	c1.545,0,3.091,0.001,4.636-0.003c0.163,0,0.375,0.078,0.378-0.237c0.004-0.303-0.186-0.254-0.363-0.254
	c-2.137,0-4.271,0.006-6.408-0.007c-0.269-0.001-0.336,0.067-0.336,0.335c0.009,3.96,0.007,7.921,0.008,11.881
	c0,0.545-0.13,1.035-0.641,1.313c-0.207,0.112-0.462,0.187-0.699,0.188c-1.447,0.018-2.896,0.016-4.346,0.007
	c-0.696-0.007-1.243-0.318-1.599-0.914c-1.785-2.985-3.566-5.975-5.337-8.971c-0.487-0.822-0.045-1.569,0.917-1.574
	c1.792-0.009,3.585-0.01,5.377,0.005c0.292,0.002,0.354-0.085,0.352-0.364c-0.011-2.383-0.011-4.765,0-7.148
	c0.002-0.274-0.056-0.364-0.351-0.362c-2.394,0.013-4.787,0.014-7.181-0.002c-0.292-0.001-0.35,0.083-0.35,0.356
	c0.008,5.817,0.005,11.635,0.007,17.451c0,0.544-0.12,1.036-0.627,1.318c-0.206,0.113-0.462,0.194-0.697,0.195
	c-1.921,0.017-3.842,0.018-5.764,0.005c-0.645-0.005-1.186-0.281-1.597-0.774c-1.861-2.234-3.714-4.475-5.572-6.71
	c-0.208-0.25-0.314-0.519-0.149-0.824c0.135-0.253,0.373-0.389,0.645-0.308c0.188,0.057,0.381,0.193,0.51,0.348
	c1.331,1.584,2.651,3.182,3.972,4.774c0.494,0.594,0.995,1.183,1.479,1.784c0.249,0.311,0.55,0.439,0.947,0.438
	c1.718-0.012,3.435-0.005,5.151-0.005c0.421,0,0.422,0,0.422-0.411c0-5.816,0.003-11.636-0.002-17.451
	c-0.001-0.544,0.144-1.006,0.643-1.271c0.208-0.111,0.465-0.184,0.701-0.186c2.574-0.012,5.15-0.011,7.728-0.007
	c0.801,0.002,1.355,0.538,1.36,1.354c0.012,2.576,0.014,5.151-0.001,7.729c-0.005,0.825-0.57,1.347-1.401,1.348
	c-1.717,0.003-3.435,0.001-5.207,0.001c0.71,1.194,1.387,2.335,2.065,3.475c0.984,1.654,1.976,3.308,2.952,4.968
	c0.189,0.322,0.43,0.463,0.808,0.459c1.276-0.016,2.555-0.015,3.832,0c0.286,0.002,0.382-0.062,0.38-0.369
	c-0.012-3.972-0.005-7.943-0.011-11.914c-0.001-0.546,0.158-1.002,0.659-1.263c0.211-0.109,0.469-0.177,0.704-0.177
	c2.309-0.014,4.616-0.009,6.924,0c0.962,0.004,1.516,0.756,1.363,1.825c-0.111,0.797-0.591,1.213-1.427,1.217
	c-1.6,0.005-3.199,0.01-4.798-0.007c-0.313-0.003-0.4,0.089-0.391,0.396c0.022,0.697,0.02,1.396,0.001,2.092
	c-0.008,0.267,0.063,0.342,0.336,0.34c1.621-0.013,3.242-0.006,4.861,0c0.679,0.002,1.211,0.371,1.358,0.922
	c0.229,0.862,0.011,1.634-0.615,1.955c-0.245,0.126-0.553,0.178-0.833,0.179c-1.589,0.017-3.177,0.015-4.765,0.003
	c-0.261-0.001-0.354,0.06-0.347,0.337c0.02,0.781,0.021,1.565,0,2.35c-0.007,0.295,0.095,0.356,0.369,0.355
	c1.578-0.013,3.156-0.001,4.734,0c1.011,0.001,1.511,0.474,1.516,1.476c0.001,0.233,0.076,0.284,0.293,0.281
	c0.977-0.013,1.954-0.013,2.932,0.001c0.234,0.003,0.278-0.074,0.278-0.292c-0.005-5.228-0.007-10.454,0.001-15.681
	c0-0.27-0.095-0.32-0.336-0.32c-1.834,0.008-3.67,0.007-5.506,0.002c-0.699-0.001-1.223-0.335-1.339-0.922
	c-0.182-0.933-0.062-1.589,0.59-1.936c0.217-0.113,0.487-0.186,0.734-0.186c5.001-0.011,10.002-0.001,15.003,0
	c0.888,0,1.392,0.528,1.414,1.428c0.014,0.591-0.076,1.135-0.649,1.43c-0.244,0.125-0.55,0.178-0.83,0.181
	c-1.834,0.015-3.67,0.015-5.506,0.001c-0.309-0.003-0.397,0.082-0.396,0.394c0.01,5.175,0.01,10.349-0.001,15.521
	c-0.001,0.316,0.095,0.391,0.397,0.384c0.955-0.021,1.911-0.026,2.865,0.002c0.35,0.011,0.393-0.11,0.393-0.414
	c-0.01-3.939,0.001-7.877,0-11.817c0-0.547,0.133-1.032,0.646-1.304c0.218-0.114,0.486-0.196,0.73-0.197
	c2.243-0.015,4.487-0.006,6.73,0c0.806,0.002,1.352,0.514,1.359,1.313c0.016,1.954,0.018,3.908,0,5.859
	c-0.008,0.813-0.558,1.313-1.393,1.317c-1.234,0.007-2.468,0.001-3.702,0.002c-0.051,0-0.103,0.006-0.21,0.012
	c0.399,0.443,0.769,0.854,1.138,1.264c1.072,1.185,2.148,2.369,3.218,3.556c0.246,0.271,0.535,0.405,0.904,0.403
	c2.489-0.006,4.979-0.007,7.469,0.003c0.258,0.002,0.342-0.075,0.327-0.328c-0.019-0.299-0.016-0.601-0.001-0.901
	c0.011-0.228-0.078-0.295-0.301-0.293c-0.825,0.009-1.651,0.004-2.479,0.004c-1.059-0.002-1.545-0.49-1.545-1.561
	c-0.001-3.038-0.001-6.074,0-9.112c0.001-1.041,0.498-1.54,1.531-1.54c3.049,0,6.096,0,9.144,0c1.018,0,1.527,0.505,1.527,1.513
	c0,3.068,0.001,6.141,0,9.21c0,0.965-0.519,1.484-1.487,1.489c-0.859,0.005-1.718,0.014-2.576-0.007
	c-0.305-0.006-0.395,0.094-0.372,0.386c0.024,0.287,0.013,0.578,0.002,0.867c-0.005,0.188,0.052,0.271,0.254,0.271
	c2.501-0.005,5.001-0.005,7.502-0.002c0.164,0,0.243-0.043,0.219-0.218c-0.009-0.063-0.001-0.129-0.001-0.192
	c0-5.796,0-11.591,0-17.387c0-1.037,0.496-1.531,1.535-1.531c2.469,0,4.937,0,7.406,0c0.978,0,1.492,0.511,1.492,1.479
	c0.001,2.49,0.001,4.98,0,7.471c0,0.97-0.516,1.481-1.489,1.481c-1.75,0.002-3.499,0.006-5.249-0.005
	c-0.236-0.002-0.312,0.056-0.31,0.3c0.008,2.769,0.008,5.535,0,8.304c-0.001,0.245,0.076,0.304,0.312,0.304
	c3.316-0.008,6.634-0.009,9.95,0.001c0.269,0.002,0.335-0.066,0.335-0.335c-0.009-4.422-0.007-8.845-0.007-13.268
	c0-1.051,0.501-1.557,1.561-1.541c0.326,0.006,0.679,0.018,0.972,0.142c0.568,0.236,0.752,0.743,0.752,1.338
	c-0.003,4.367-0.001,8.735-0.001,13.104c0,0.554,0,0.554,0.553,0.554c0.892,0,1.783-0.015,2.673,0.007
	c0.295,0.007,0.354-0.092,0.354-0.365c-0.008-3.938-0.004-7.877-0.007-11.815c-0.001-0.569,0.118-1.081,0.666-1.359
	c0.22-0.112,0.486-0.188,0.733-0.188c2.286-0.015,4.572-0.005,6.858,0c0.855,0.001,1.371,0.522,1.398,1.38
	c0.021,0.594-0.04,1.163-0.629,1.471c-0.253,0.132-0.569,0.188-0.858,0.19c-1.589,0.02-3.177,0.015-4.766,0.005
	c-0.258-0.002-0.354,0.061-0.347,0.338c0.019,0.729,0.017,1.46,0.001,2.188c-0.005,0.243,0.063,0.305,0.303,0.304
	c1.621-0.012,3.242-0.007,4.861-0.004c0.524,0.001,0.964,0.17,1.252,0.64c0.421,0.687,0.195,1.873-0.466,2.229
	c-0.243,0.13-0.55,0.187-0.83,0.188c-1.6,0.018-3.198,0.014-4.798,0.004c-0.246-0.001-0.331,0.054-0.324,0.314
	c0.018,0.807,0.015,1.61,0.001,2.415c-0.004,0.246,0.083,0.311,0.314,0.309c1.6-0.01,3.197-0.005,4.798-0.005
	c0.979,0.001,1.471,0.47,1.479,1.442c0.003,0.265,0.096,0.32,0.339,0.319c1.728-0.01,3.456,0.004,5.185-0.01
	c0.84-0.005,1.504,0.291,2.035,0.957c1.771,2.222,3.559,4.434,5.354,6.635C508.201,693.067,508.035,693.638,507.534,693.746z"/>
<g>
	<path id="path134_2_" fill="#8D1825" d="M373.42,683.384c0.734,1.971,2.176,5.832,2.382,6.375c0.462,1.229,1.529,2.25,3.102,2.955
		c1.435,0.646,3.265,1,5.132,1l0,0c1.89,0,3.729-0.359,5.19-1.014c1.589-0.713,2.676-1.735,3.146-2.971l2.419-6.359
		C394.712,683.399,373.455,683.391,373.42,683.384z"/>
	<path id="path140_2_" fill="#AA1F24" d="M382.116,688.038c-0.462,0-0.955-0.153-1.271-0.522c-0.25-0.286-0.625-0.411-0.985-0.448
		c-0.515-0.053-0.984,0.169-1.493,0.169c-0.456,0-0.979-0.153-1.221-0.597c-0.088-0.168-0.088-0.366-0.236-0.499
		c-0.184-0.184-0.456-0.265-0.697-0.294c-0.486-0.059-0.964,0.096-1.412-0.189c-0.178-0.109-0.316-0.294-0.361-0.516
		c-0.03-0.117-0.221-0.771-0.25-0.911c-0.037-0.206-0.661-0.065-0.875-0.186c-0.19-0.108-0.287-0.396-0.346-0.536
		c-0.06-0.132-0.25-0.867-0.256-1c0.228-0.104-0.066-0.277-0.133-0.397c-0.059-0.117-0.36-0.802-0.271-1.06
		c0.132-0.169,0.552-0.412,0.508-0.471c-0.146-0.199-0.095-0.523-0.052-0.867c0.153-0.184,0.838-0.206,0.919-0.278
		c0.11-0.088,0.081-0.67,0.103-0.802c0.405-0.118,0.955-0.095,1.294-0.234l19.314,0.277c0,0,0.015,0.044,0.007,0.271
		c0.016,0.103,0.86,0.582,1.044,0.808c0.007,0.191-0.037,0.617-0.059,0.714c-0.044,0.169,0.427,0.368,0.515,0.589
		c0,0.303-0.059,0.912-0.199,1.065c-0.043,0.044-0.265,0.331-0.265,0.384c0,0,0.103-0.095,0.095,0.006
		c-0.008,0.104-0.081,0.646-0.256,1.038c-0.162,0.529-0.786,0.42-1.184,0.56c-0.037,0.214-0.229,1.108-0.391,1.321
		c-0.323,0.42-0.866,0.391-1.331,0.375c-0.235-0.007-0.471,0.029-0.69,0.117c-0.104,0.044-0.199,0.104-0.279,0.178
		c-0.103,0.104-0.125,0.215-0.162,0.353c-0.146,0.486-0.646,0.707-1.088,0.743c-0.375,0.037-0.698-0.081-1.059-0.142
		c-0.354-0.059-0.721-0.036-1.06,0.081c-0.162,0.061-0.315,0.142-0.44,0.257c-0.118,0.11-0.214,0.236-0.347,0.331
		c-0.293,0.206-0.653,0.287-1.007,0.287c-0.36,0-0.72-0.088-1.037-0.271c-0.309-0.185-0.677-0.25-1.021-0.25
		c-0.354,0-0.72,0.065-1.022,0.25C382.838,687.949,382.477,688.038,382.116,688.038"/>
	<path id="path142_2_" fill="#CB2128" d="M382.065,686.619c-0.471,0-0.979-0.14-1.301-0.479c-0.256-0.265-0.641-0.374-1.014-0.403
		c-0.529-0.053-1.008,0.152-1.53,0.152c-0.462,0-1-0.14-1.25-0.535c-0.095-0.153-0.095-0.331-0.236-0.456
		c-0.19-0.161-0.462-0.242-0.713-0.266c-0.5-0.052-0.985,0.088-1.448-0.177c-0.184-0.104-0.331-0.265-0.368-0.462
		c-0.021-0.096-0.015-0.199,0.008-0.287c0.021-0.095,0.081-0.178,0.036-0.271c-0.08-0.179-0.33-0.25-0.515-0.279
		c-0.236-0.037-0.462-0.043-0.676-0.146c-0.199-0.095-0.346-0.271-0.354-0.485c-0.007-0.242,0.141-0.397,0.293-0.573
		c0.154-0.177,0.053-0.293-0.153-0.346c-0.222-0.053-0.448-0.178-0.516-0.391c-0.073-0.228,0.066-0.439,0.243-0.589
		c0.154-0.124,0.391-0.198,0.486-0.374c0.037-0.059-0.169-0.146-0.214-0.199c-0.146-0.177-0.104-0.411,0.052-0.565
		c0.162-0.169,0.383-0.257,0.602-0.338c0.104-0.036,0.199-0.087,0.287-0.153c0.11-0.081,0.03-0.095,0.007-0.214
		c-0.095-0.522,0.721-0.633,1.074-0.751c0.104-0.036,0.214-0.081,0.302-0.146c0.053-0.037,0.053-0.184,0.096-0.25
		c0.125-0.169,0.353-0.256,0.559-0.314c0.229-0.06,0.471-0.074,0.698-0.141c0.11-0.029,0.228-0.065,0.316-0.132
		c0.073-0.053,0.109-0.153,0.198-0.214c0.44-0.278,1.015-0.162,1.5-0.324c0.169-0.059,0.287-0.184,0.472-0.242
		c0.242-0.073,0.508-0.104,0.757-0.089c0.228,0.017,0.456-0.015,0.677-0.064c0.19-0.052,0.361-0.153,0.558-0.19
		c0.449-0.081,0.897,0.044,1.347-0.029c0.199-0.03,0.375-0.11,0.574-0.133c0.235-0.029,0.484-0.021,0.713,0.037
		c0.471,0.109,0.903-0.052,1.367-0.044c0.347,0,0.646,0.14,0.985,0.169c0.412,0.037,0.823-0.065,1.235,0.021
		c0.19,0.037,0.346,0.141,0.529,0.184c0.229,0.053,0.463,0.066,0.698,0.061c0.214-0.008,0.427,0.015,0.632,0.073
		c0.229,0.06,0.375,0.214,0.589,0.278c0.486,0.146,1.089,0.03,1.5,0.346c0.081,0.06,0.11,0.153,0.199,0.206
		c0.096,0.052,0.199,0.081,0.302,0.109c0.178,0.053,0.361,0.065,0.545,0.104c0.205,0.044,0.427,0.109,0.589,0.242
		c0.088,0.074,0.153,0.162,0.169,0.271c0.015,0.096,0.118,0.132,0.214,0.178c0.294,0.132,0.625,0.153,0.904,0.315
		c0.177,0.103,0.337,0.277,0.293,0.491c-0.022,0.088-0.089,0.118-0.016,0.179c0.095,0.073,0.206,0.132,0.315,0.177
		c0.338,0.132,0.963,0.427,0.684,0.867c-0.052,0.081-0.132,0.14-0.221,0.184c-0.066,0.03,0.006,0.088,0.044,0.125
		c0.153,0.162,0.39,0.235,0.536,0.397c0.146,0.161,0.214,0.383,0.103,0.582c-0.125,0.221-0.353,0.242-0.573,0.338
		c-0.236,0.103-0.081,0.271,0.044,0.39c0.161,0.168,0.271,0.404,0.19,0.633c-0.169,0.485-0.75,0.404-1.154,0.529
		c-0.189,0.059-0.419,0.199-0.322,0.42c0.094,0.228,0.074,0.485-0.096,0.676c-0.33,0.384-0.89,0.354-1.358,0.338
		c-0.243-0.007-0.486,0.022-0.707,0.11c-0.104,0.036-0.199,0.087-0.279,0.161c-0.109,0.095-0.125,0.189-0.168,0.314
		c-0.154,0.44-0.662,0.641-1.117,0.678c-0.383,0.029-0.713-0.074-1.081-0.125c-0.36-0.053-0.741-0.037-1.088,0.073
		c-0.162,0.053-0.324,0.125-0.456,0.236c-0.118,0.104-0.214,0.214-0.353,0.302c-0.302,0.185-0.67,0.266-1.029,0.266
		c-0.368,0-0.734-0.081-1.059-0.249c-0.316-0.162-0.692-0.229-1.051-0.229c-0.359,0-0.735,0.061-1.052,0.229
		C382.807,686.537,382.433,686.619,382.065,686.619"/>
	<path id="path144_2_" fill="#010101" d="M386.984,679.098c0,0.758-1.346,1.375-3.015,1.375c-1.662,0-3.015-0.617-3.015-1.375
		c0-0.757,1.347-1.375,3.015-1.375C385.631,677.723,386.984,678.339,386.984,679.098"/>
	<path id="path162_2_" fill="#D1D0BA" d="M383.985,679.619c-0.427,0-1.154-0.169-1.184-0.802c-0.053-1.243-0.574-7.463-0.691-8.859
		l3.771,0.016c-0.206,2.646-0.677,8.713-0.713,8.962c-0.03,0.19-0.185,0.384-0.428,0.516
		C384.543,679.56,384.271,679.619,383.985,679.619"/>
	<path fill="#FFFFFF" d="M384.794,679.42l0.632-9.438h-0.948l-0.323,9.639c0.222-0.022,0.427-0.074,0.582-0.162
		C384.757,679.443,384.779,679.429,384.794,679.42z"/>
	<path id="path166_2_" fill="#AA1F24" d="M388.602,665.892c0,2.545-2.058,4.604-4.604,4.604c-2.545,0-4.604-2.06-4.604-4.604
		c0-2.546,2.059-4.604,4.604-4.604C386.544,661.289,388.602,663.349,388.602,665.892"/>
	<path fill="#CB2128" d="M388.602,665.892c0-2.536-2.058-4.604-4.604-4.604c-1.462,0-2.765,0.684-3.609,1.742
		c-0.537,1.559-0.191,3.346,1.044,4.58c1.728,1.728,4.558,1.714,6.309-0.037l0,0c0.337-0.337,0.61-0.72,0.823-1.125
		C388.595,666.268,388.602,666.083,388.602,665.892L388.602,665.892z"/>
	<path id="path170_2_" fill="#FFFFFF" d="M386.69,662.811c0.713,0.787,0.809,1.729,0.456,1.921
		c-0.361,0.198-1.014-0.199-1.625-0.729c-0.602-0.536-0.992-1.185-0.735-1.64C385.029,661.914,385.977,662.017,386.69,662.811"/>
	<path id="path152_5_" fill="#56813A" d="M393.072,679.972l-4.206,0.016l0.007,1.001c0,0.491,0.25,0.891,0.816,1.139
		c0.375,0.168,0.823,0.265,1.287,0.265c0.434,0,0.86-0.081,1.228-0.234c0.56-0.236,0.875-0.618,0.875-1.066v-1.117h-0.007V679.972
		L393.072,679.972z"/>
	<path id="path152_4_" fill="#609741" d="M390.969,678.663c-0.435,0-0.86,0.081-1.222,0.235c-0.515,0.215-0.822,0.559-0.866,0.964
		c-0.053,0.462,0.25,0.891,0.815,1.139c0.375,0.168,0.823,0.265,1.287,0.265c0.435,0,0.86-0.081,1.229-0.235
		c0.559-0.235,0.875-0.617,0.875-1.066c0-0.411-0.266-0.764-0.742-1.007c-0.052-0.03-0.096-0.052-0.132-0.06
		C391.828,678.744,391.409,678.663,390.969,678.663"/>
	<path id="path152_3_" fill="#CEA52B" d="M389.359,681.869l-4.206,0.016l0.007,1c0,0.492,0.25,0.892,0.816,1.14
		c0.375,0.169,0.823,0.265,1.287,0.265c0.434,0,0.859-0.081,1.228-0.235c0.56-0.235,0.875-0.617,0.875-1.065v-1.117h-0.007V681.869
		L389.359,681.869z"/>
	<path id="path152_2_" fill="#FDE200" d="M387.256,680.561c-0.435,0-0.86,0.081-1.222,0.235c-0.515,0.215-0.822,0.559-0.866,0.964
		c-0.053,0.462,0.25,0.892,0.815,1.14c0.375,0.169,0.823,0.265,1.287,0.265c0.434,0,0.86-0.081,1.228-0.236
		c0.559-0.234,0.875-0.617,0.875-1.064c0-0.412-0.265-0.766-0.741-1.009c-0.053-0.029-0.096-0.052-0.132-0.059
		C388.115,680.648,387.691,680.567,387.256,680.561"/>
</g>
</svg>
